<svg xmlns="http://www.w3.org/2000/svg" viewBox="0 0 515.91 515.91"><defs><style>.cls-1{fill:#000;}</style></defs><title>Ресурс 1</title><g id="Слой_2" data-name="Слой 2"><g id="Ñëîé_1" data-name="Ñëîé 1"><path class="cls-1" d="M293,312,273.7,328.83a5.35,5.35,0,0,1-7.39-.33,421.48,421.48,0,0,1-72.42-103.45,5.34,5.34,0,0,1,2.23-7.06l22.4-12.33a10.67,10.67,0,0,0,4.3-4.38L231,185.77a8,8,0,0,0-.07-7.62l-33.75-61.31a8,8,0,0,0-6.44-4.14L172,111.3a10.76,10.76,0,0,0-6,1.3l-21.61,11.9-7.14,3.93a26.59,26.59,0,0,0-13.86,23c-.06,10.1,1.46,21.63,4.48,34.18,8.51,35.29,28.86,78.72,58.85,121.55s63.87,76.82,94.11,96.89h0c10.7,7.1,21,12.46,30.44,15.85a26.59,26.59,0,0,0,26.39-5.15l6.18-5.4,18.57-16.24a10.73,10.73,0,0,0,3.26-5.16l5.1-18.09a8,8,0,0,0-1.68-7.46l-46.08-52.7a8,8,0,0,0-7.14-2.67l-17.36,2.38A10.75,10.75,0,0,0,293,312Z"/><path class="cls-1" d="M365.2,181.54a146.88,146.88,0,0,0-72.94-54.27,10.13,10.13,0,0,0-12.74,6.14l-.63,1.73a10.09,10.09,0,0,0,6.23,13.05,125.52,125.52,0,0,1,85.25,120.55A10.12,10.12,0,0,0,380.65,279l1.83,0a10.14,10.14,0,0,0,10-10A146.77,146.77,0,0,0,365.2,181.54Z"/><path class="cls-1" d="M329.14,207.17a102.67,102.67,0,0,0-52.09-38.32A10.15,10.15,0,0,0,264.34,175l-.65,1.77a10.13,10.13,0,0,0,6.41,13.11,81,81,0,0,1,55.95,79.32,10.14,10.14,0,0,0,10.28,10.43l1.89,0a10.16,10.16,0,0,0,10-9.92A102.78,102.78,0,0,0,329.14,207.17Z"/><path class="cls-1" d="M258,0C115.49,0,0,115.49,0,258s115.49,258,258,258,258-115.49,258-258S400.42,0,258,0Zm0,480.19c-122.54,0-222.23-99.7-222.23-222.24S135.41,35.72,258,35.72,480.19,135.41,480.19,258,380.49,480.19,258,480.19Z"/></g></g></svg>
