<svg xmlns="http://www.w3.org/2000/svg" viewBox="0 0 437.88 219.44"><defs><style>.cls-1{fill:#fff;}.cls-2{fill:#5ab046;}</style></defs><title>Ресурс 1</title><g id="Слой_2" data-name="Слой 2"><g id="Layer_1" data-name="Layer 1"><polygon class="cls-1" points="437.88 219.44 0 219.44 219.35 0 437.88 219.44"/><polygon points="108.14 191.92 124.46 175.54 118.98 170.04 108.76 180.3 90.19 161.66 84.09 167.77 108.14 191.92"/><polygon points="114.87 146.73 118.97 150.85 127.44 142.35 132.34 147.28 123.87 155.78 129.11 161.03 139.58 150.52 144.48 155.44 127.91 172.08 103.86 147.94 120.43 131.29 125.33 136.22 114.87 146.73"/><path d="M168.43,131.4l-16.37-4.65h0c1.89-3.6,1-8.47-2.27-11.8-3.57-3.57-9.65-3.45-13.7.62h0l-12.18,12.23,24,24.15,6.1-6.13L134.6,126.26l3.94-3.94a4.38,4.38,0,0,1,6.23-.11,4.44,4.44,0,0,1-.11,6.26l-3.58,3.6,20.79,5.9Z"/><path d="M157.41,93.11c7.52-7.55,17.47-6.82,24.51.25s7.78,17.06.26,24.61-17.46,6.81-24.51-.26-7.78-17-.26-24.6m4.78,4.79c-3.81,3.83-2.54,8.49,2.11,13.16s9.28,5.94,13.1,2.11,2.54-8.48-2.11-13.15-9.29-6-13.1-2.12"/><polygon points="189.16 80.42 184.69 66.79 191.81 59.65 197.78 83.02 207.2 92.48 201.1 98.61 191.73 89.2 169.42 82.12 176.13 75.39 189.04 80.4 189.16 80.42"/><polygon points="300.47 163.64 324.53 139.5 318.12 133.06 294.06 157.2 300.47 163.64"/><polygon points="208.42 71.25 227.13 62.29 213.31 76.16 218.87 81.73 242.92 57.59 235.29 49.92 217.18 58.79 217.18 58.79 226.24 40.84 218.37 32.95 194.32 57.08 199.88 62.66 213.69 48.8 204.76 67.57 208.42 71.25"/><polygon points="250.13 74.66 246.02 78.78 255.25 88.04 250.34 92.97 241.12 83.7 235.88 88.96 247.11 100.22 242.21 105.15 224.88 87.75 248.93 63.61 266.27 81.01 261.35 85.92 250.13 74.66"/><polygon points="273.35 136.43 289.66 152.81 295.14 147.31 284.92 137.06 303.49 118.41 297.39 112.29 273.35 136.43"/><polygon points="338.14 153.15 330.43 178.74 330.42 178.76 347.03 162.08 352.75 167.81 328.7 191.94 321.16 184.38 327.73 158.01 327.75 158 311.31 174.49 305.76 168.92 329.8 144.78 338.14 153.15"/><path d="M268.79,131.87l4.63-16.43h0c3.58,1.9,8.43,1,11.75-2.28,3.56-3.57,3.43-9.68-.62-13.75h0l-12.94-13-24.06,24.15,6.11,6.13,19.46-19.55,4.7,4.71a4.44,4.44,0,0,1,.11,6.26,4.39,4.39,0,0,1-6.23-.11l-4.35-4.36-5.13,21.63Z"/><polygon class="cls-2" points="112.71 196.53 324.16 196.53 218.44 90.41 112.71 196.53"/></g></g></svg>